# xmcd CD database file generated by LOLA_Freedb v0.9beta0
#
# Track frame offsets:
#      150
#      16574
#      39982
#      59190
#      72389
#      92465
#      108686
#      127972
#      143665
#      156541
#
# Disc length: 2407 seconds
#
# Revision: 0
# Processed by: cddbd v1.5.2PL0 Copyright (c) Steve Scherf et al.
# Submitted via: LOLA_Freedb v0.9beta0
#
DISCID=8609650a
DTITLE=Stingray - Stingray
DYEAR=1979
DGENRE=
TTITLE0=Stingray - Where Do We Go From Here
TTITLE1=Stingray - Better The Devil You Know
TTITLE2=Stingray - Lovesaver
TTITLE3=Stingray - Whole Lotta Fire
TTITLE4=Stingray - Lucy
TTITLE5=Stingray - Breakdown
TTITLE6=Stingray - The Man In My Shoes
TTITLE7=Stingray - How Much
TTITLE8=Stingray - Hard Headed Loner
TTITLE9=Stingray - Gonna Keep My Head Together
EXTD=
EXTT0=
EXTT1=
EXTT2=
EXTT3=
EXTT4=
EXTT5=
EXTT6=
EXTT7=
EXTT8=
EXTT9=
PLAYORDER=
